<svg width="14" height="14" viewBox="0 0 14 14" fill="none" xmlns="http://www.w3.org/2000/svg">
<path d="M7.48115 3.16865C7.42764 3.09093 7.35603 3.02738 7.2725 2.98347C7.18897 2.93957 7.09602 2.91663 7.00165 2.91663C6.90729 2.91663 6.81434 2.93957 6.73081 2.98347C6.64728 3.02738 6.57567 3.09093 6.52215 3.16865L1.27215 10.752C1.21139 10.8395 1.17575 10.9419 1.16912 11.0482C1.16249 11.1545 1.18511 11.2606 1.23454 11.3549C1.28396 11.4493 1.3583 11.5283 1.44947 11.5833C1.54064 11.6384 1.64515 11.6674 1.75165 11.6672L12.2517 11.6672C12.3579 11.6668 12.462 11.6374 12.5528 11.5822C12.6436 11.527 12.7177 11.4481 12.767 11.354C12.8163 11.2599 12.839 11.1541 12.8327 11.048C12.8264 10.9419 12.7913 10.8396 12.7312 10.752L7.48115 3.16865Z" fill="#37A0EA"/>
</svg>
