<svg width="135" height="16" viewBox="0 0 135 16" fill="none" xmlns="http://www.w3.org/2000/svg">
<path d="M11.3632 8.69604C11.0171 9.90132 10.3745 10.8053 9.43532 11.4079C8.49611 11.9985 7.353 12.2938 6.00598 12.2938C4.77018 12.2938 3.70122 12.0527 2.79908 11.5706C1.89695 11.0765 1.2049 10.3714 0.722942 9.45537C0.240981 8.52731 0 7.42448 0 6.14689C0 4.88136 0.240981 3.78456 0.722942 2.8565C1.2049 1.92844 1.89695 1.22335 2.79908 0.741243C3.70122 0.247081 4.764 0 5.98744 0C7.3221 0 8.45286 0.277213 9.37971 0.831638C10.3066 1.37401 10.9183 2.1936 11.2149 3.2904L8.41579 4.39322C8.24277 3.67006 7.97708 3.16384 7.6187 2.87458C7.26031 2.58531 6.75364 2.44068 6.09866 2.44068C5.19653 2.44068 4.49831 2.76008 4.00399 3.39887C3.50967 4.02561 3.26251 4.94162 3.26251 6.14689C3.26251 7.35217 3.49731 8.2742 3.96691 8.91299C4.44887 9.53974 5.14092 9.85311 6.04305 9.85311C6.72274 9.85311 7.26032 9.69642 7.65577 9.38305C8.05123 9.06968 8.3231 8.57552 8.4714 7.90056L11.3632 8.69604Z" fill="white"/>
<path d="M17.3629 2.89265C18.9077 2.89265 20.1064 3.30847 20.9591 4.14011C21.8241 4.9597 22.2567 6.11073 22.2567 7.59322C22.2567 9.07571 21.8241 10.2328 20.9591 11.0644C20.1064 11.884 18.9077 12.2938 17.3629 12.2938C15.8182 12.2938 14.6133 11.884 13.7482 11.0644C12.8955 10.2328 12.4692 9.07571 12.4692 7.59322C12.4692 6.11073 12.8955 4.9597 13.7482 4.14011C14.6133 3.30847 15.8182 2.89265 17.3629 2.89265ZM17.3629 5.08023C16.7697 5.08023 16.331 5.2791 16.0468 5.67684C15.7626 6.07458 15.6204 6.71337 15.6204 7.59322C15.6204 8.47307 15.7626 9.11186 16.0468 9.5096C16.331 9.90734 16.7697 10.1062 17.3629 10.1062C17.9561 10.1062 18.3948 9.90734 18.679 9.5096C18.9633 9.11186 19.1054 8.47307 19.1054 7.59322C19.1054 6.71337 18.9633 6.07458 18.679 5.67684C18.3948 5.2791 17.9561 5.08023 17.3629 5.08023Z" fill="white"/>
<path d="M36.1328 2.89265C37.072 2.89265 37.832 3.16987 38.4128 3.72429C39.006 4.27872 39.3026 5.06817 39.3026 6.09266V12.113H36.1513V6.79774C36.1513 5.76121 35.7311 5.24294 34.8908 5.24294C34.3965 5.24294 34.001 5.4177 33.7044 5.76723C33.4078 6.11676 33.2595 6.62297 33.2595 7.28587V12.113H30.1082V6.79774C30.1082 5.76121 29.6881 5.24294 28.8477 5.24294C28.3781 5.24294 27.9889 5.4177 27.6799 5.76723C27.371 6.11676 27.2165 6.64105 27.2165 7.34011V12.113H24.0652V3.07345H26.8828L26.9755 4.80904C27.2721 4.1823 27.6861 3.70621 28.2175 3.38079C28.7489 3.05537 29.3729 2.89265 30.0897 2.89265C30.7941 2.89265 31.3997 3.04934 31.9063 3.36271C32.4254 3.67608 32.7961 4.12806 33.0185 4.71864C33.3151 4.12806 33.7353 3.67608 34.2791 3.36271C34.8352 3.04934 35.4531 2.89265 36.1328 2.89265Z" fill="white"/>
<path d="M47.4664 2.89265C48.6775 2.89265 49.6167 3.30245 50.284 4.12203C50.9513 4.94162 51.285 6.08663 51.285 7.55706C51.285 9.0516 50.9452 10.2147 50.2655 11.0463C49.5858 11.878 48.6527 12.2938 47.4664 12.2938C46.8114 12.2938 46.2429 12.1431 45.761 11.8418C45.2914 11.5405 44.9268 11.1247 44.6673 10.5943V15.9096H41.516V3.07345H44.278L44.3707 4.98983C44.6302 4.35104 45.0257 3.84482 45.5571 3.47119C46.1008 3.0855 46.7373 2.89265 47.4664 2.89265ZM46.3727 10.0339C46.9288 10.0339 47.3552 9.83503 47.6518 9.43729C47.9607 9.03955 48.1152 8.42486 48.1152 7.59322C48.1152 6.76158 47.9607 6.14689 47.6518 5.74915C47.3552 5.35141 46.9288 5.15254 46.3727 5.15254C45.8413 5.15254 45.4211 5.35141 45.1122 5.74915C44.8156 6.14689 44.6673 6.73145 44.6673 7.50282V7.68362C44.6673 8.43089 44.8156 9.00942 45.1122 9.41921C45.4088 9.829 45.8289 10.0339 46.3727 10.0339Z" fill="white"/>
<path d="M62.0188 10.3593C62.2536 10.3593 62.4451 10.3352 62.5934 10.287L62.3524 12.0045C61.9941 12.1974 61.5739 12.2938 61.0919 12.2938C59.7573 12.2938 58.9602 11.8298 58.7007 10.9017C58.1445 11.8298 57.0447 12.2938 55.4011 12.2938C54.4742 12.2938 53.7636 12.1009 53.2693 11.7153C52.775 11.3296 52.5278 10.7691 52.5278 10.0339C52.5278 9.26252 52.8059 8.64181 53.362 8.17175C53.9305 7.68964 54.8573 7.32203 56.1426 7.06893L58.2372 6.67119V6.34576C58.2372 5.93597 58.1198 5.61055 57.885 5.36949C57.6502 5.12844 57.3289 5.00791 56.9211 5.00791C56.4515 5.00791 56.0684 5.11638 55.7718 5.33333C55.4752 5.55028 55.2837 5.90584 55.1972 6.4L52.6391 5.67684C52.7997 4.79699 53.2446 4.11601 53.9737 3.6339C54.7029 3.13974 55.6853 2.89265 56.9211 2.89265C58.367 2.89265 59.4669 3.18192 60.2207 3.76045C60.9745 4.33898 61.3514 5.20678 61.3514 6.36384V9.65424C61.3514 10.1243 61.5739 10.3593 62.0188 10.3593ZM56.5504 10.3051C56.9829 10.3051 57.3722 10.1906 57.7182 9.96158C58.0642 9.72053 58.2372 9.40716 58.2372 9.02147V8.24407L56.7357 8.58757C56.3403 8.68399 56.056 8.80452 55.883 8.94915C55.7224 9.08173 55.6421 9.27458 55.6421 9.52768C55.6421 9.78079 55.7224 9.97363 55.883 10.1062C56.0437 10.2388 56.2661 10.3051 56.5504 10.3051Z" fill="white"/>
<path d="M69.9165 2.89265C70.8928 2.89265 71.6714 3.16987 72.2522 3.72429C72.833 4.27872 73.1234 5.06817 73.1234 6.09266V12.113H69.9722V6.94237C69.9722 6.32768 69.8548 5.89378 69.6199 5.64068C69.3975 5.37552 69.0762 5.24294 68.656 5.24294C68.1617 5.24294 67.7601 5.4177 67.4511 5.76723C67.1422 6.10471 66.9877 6.629 66.9877 7.34011V12.113H63.8364V3.07345H66.654L66.7467 4.80904C67.0433 4.17024 67.4635 3.69416 68.0072 3.38079C68.551 3.05537 69.1874 2.89265 69.9165 2.89265Z" fill="white"/>
<path d="M80.9582 12.113C80.6122 13.0772 80.2353 13.8426 79.8275 14.409C79.4196 14.9755 78.9377 15.3793 78.3816 15.6203C77.8255 15.8734 77.1519 16 76.361 16C75.3106 16 74.4703 15.777 73.84 15.3311L74.5073 13.2701C74.7051 13.4508 74.9213 13.5714 75.1561 13.6316C75.4033 13.704 75.7184 13.7401 76.1015 13.7401C76.4846 13.7401 76.7874 13.6738 77.0098 13.5412C77.2323 13.4207 77.4115 13.1977 77.5474 12.8723L77.7699 12.3119L76.6947 9.85311L73.9327 3.07345H77.3991L78.8265 8.22599L79.2713 10.1424L79.7718 8.15367L81.1992 3.07345H84.3505L80.9582 12.113Z" fill="white"/>
<path d="M95.0336 9.70847V12.113H85.7095V0.180791H88.8978V9.70847H95.0336Z" fill="white"/>
<path d="M101.949 0C103.185 0 104.248 0.247081 105.138 0.741243C106.04 1.22335 106.732 1.92844 107.214 2.8565C107.696 3.7725 107.937 4.8693 107.937 6.14689C107.937 7.42448 107.696 8.52731 107.214 9.45537C106.732 10.3714 106.04 11.0765 105.138 11.5706C104.248 12.0527 103.185 12.2938 101.949 12.2938C100.714 12.2938 99.6445 12.0527 98.7424 11.5706C97.8403 11.0765 97.1482 10.3714 96.6663 9.45537C96.1843 8.52731 95.9433 7.42448 95.9433 6.14689C95.9433 4.8693 96.1843 3.7725 96.6663 2.8565C97.1482 1.92844 97.8403 1.22335 98.7424 0.741243C99.6445 0.247081 100.714 0 101.949 0ZM101.949 2.44068C101.06 2.44068 100.38 2.75405 99.9102 3.38079C99.4406 4.00753 99.2058 4.92957 99.2058 6.14689C99.2058 7.36422 99.4406 8.28625 99.9102 8.91299C100.38 9.53974 101.06 9.85311 101.949 9.85311C102.839 9.85311 103.513 9.53974 103.97 8.91299C104.439 8.28625 104.674 7.36422 104.674 6.14689C104.674 4.92957 104.439 4.00753 103.97 3.38079C103.513 2.75405 102.839 2.44068 101.949 2.44068Z" fill="white"/>
<path d="M121.104 5.65876V12.113H118.879L118.787 10.7028C118.082 11.7635 116.914 12.2938 115.283 12.2938C114.171 12.2938 113.182 12.0588 112.317 11.5887C111.464 11.1066 110.797 10.4075 110.315 9.49152C109.833 8.56346 109.592 7.45461 109.592 6.16497C109.592 4.88738 109.839 3.79058 110.334 2.87458C110.828 1.94652 111.532 1.23541 112.447 0.741243C113.361 0.247081 114.443 0 115.691 0C117.087 0 118.212 0.241054 119.065 0.723163C119.917 1.20527 120.591 1.98267 121.085 3.05537L118.138 4.19435C117.989 3.60377 117.711 3.16384 117.304 2.87458C116.896 2.58531 116.389 2.44068 115.784 2.44068C114.844 2.44068 114.121 2.75405 113.615 3.38079C113.12 4.00753 112.873 4.92957 112.873 6.14689C112.873 8.65386 113.874 9.90734 115.876 9.90734C116.63 9.90734 117.236 9.73861 117.693 9.40113C118.162 9.06365 118.397 8.57552 118.397 7.93672V7.75593H115.357V5.65876H121.104Z" fill="white"/>
<path d="M129.013 0C130.248 0 131.311 0.247081 132.201 0.741243C133.103 1.22335 133.795 1.92844 134.277 2.8565C134.759 3.7725 135 4.8693 135 6.14689C135 7.42448 134.759 8.52731 134.277 9.45537C133.795 10.3714 133.103 11.0765 132.201 11.5706C131.311 12.0527 130.248 12.2938 129.013 12.2938C127.777 12.2938 126.708 12.0527 125.806 11.5706C124.904 11.0765 124.211 10.3714 123.73 9.45537C123.248 8.52731 123.007 7.42448 123.007 6.14689C123.007 4.8693 123.248 3.7725 123.73 2.8565C124.211 1.92844 124.904 1.22335 125.806 0.741243C126.708 0.247081 127.777 0 129.013 0ZM129.013 2.44068C128.123 2.44068 127.443 2.75405 126.973 3.38079C126.504 4.00753 126.269 4.92957 126.269 6.14689C126.269 7.36422 126.504 8.28625 126.973 8.91299C127.443 9.53974 128.123 9.85311 129.013 9.85311C129.902 9.85311 130.576 9.53974 131.033 8.91299C131.503 8.28625 131.737 7.36422 131.737 6.14689C131.737 4.92957 131.503 4.00753 131.033 3.38079C130.576 2.75405 129.902 2.44068 129.013 2.44068Z" fill="white"/>
</svg>
