<svg width="20" height="20" viewBox="0 0 20 20" fill="none" xmlns="http://www.w3.org/2000/svg">
<path d="M15.0624 1.29504L18.5399 4.92004V18.705H5.54932V18.75H18.5843V4.96567L15.0624 1.29504Z" fill="#909090"/>
<path d="M15.0193 1.25H5.50488V18.705H18.5399V4.92063L15.0186 1.25" fill="#F4F4F4"/>
<path d="M5.40952 2.1875H1.41577V6.45437H13.9783V2.1875H5.40952Z" fill="#7A7B7C"/>
<path d="M14.045 6.38182H1.49683V2.11182H14.045V6.38182Z" fill="#DD2025"/>
<path d="M5.65745 2.83374H4.84058V5.83374H5.48308V4.82187L5.62495 4.82999C5.76281 4.82762 5.89937 4.80292 6.02933 4.75687C6.14327 4.71768 6.24808 4.65581 6.33745 4.57499C6.42839 4.498 6.50008 4.40084 6.54683 4.29124C6.60951 4.10905 6.6319 3.91543 6.61245 3.72374C6.60855 3.58681 6.58454 3.45119 6.5412 3.32124C6.50175 3.22743 6.4432 3.14287 6.36927 3.07292C6.29535 3.00298 6.20767 2.9492 6.11183 2.91499C6.02896 2.88499 5.94334 2.86322 5.8562 2.84999C5.79022 2.83981 5.72359 2.83438 5.65683 2.83374H5.65745ZM5.5387 4.26749H5.48308V3.34249H5.6037C5.65694 3.33865 5.71036 3.34682 5.76001 3.3664C5.80967 3.38598 5.85429 3.41647 5.89058 3.45562C5.96578 3.55625 6.00595 3.67874 6.00495 3.80437C6.00495 3.95812 6.00495 4.09749 5.8662 4.19562C5.76624 4.25059 5.65247 4.27535 5.5387 4.26687" fill="#464648"/>
<path d="M7.83308 2.82568C7.7637 2.82568 7.6962 2.83068 7.6487 2.83255L7.49995 2.8363H7.01245V5.8363H7.5862C7.80547 5.84231 8.02378 5.80515 8.2287 5.72693C8.39365 5.66151 8.53971 5.55604 8.6537 5.42005C8.76455 5.28284 8.84411 5.12308 8.88683 4.95193C8.93593 4.7581 8.95988 4.55875 8.95808 4.3588C8.9702 4.12265 8.95193 3.88592 8.9037 3.65443C8.85794 3.48403 8.77224 3.32699 8.6537 3.1963C8.5607 3.09078 8.44685 3.00566 8.31933 2.9463C8.20981 2.89563 8.09462 2.85828 7.9762 2.83505C7.92911 2.82728 7.88142 2.82372 7.8337 2.82443L7.83308 2.82568ZM7.71995 5.28505H7.65745V3.37005H7.66558C7.79443 3.35523 7.92479 3.37848 8.04058 3.43693C8.12537 3.50463 8.19446 3.58993 8.24308 3.68693C8.29555 3.78901 8.3258 3.90106 8.33183 4.01568C8.33745 4.15318 8.33183 4.26568 8.33183 4.3588C8.33437 4.46608 8.32747 4.57337 8.3112 4.67943C8.29194 4.78832 8.25633 4.89368 8.20558 4.99193C8.14813 5.08328 8.07052 5.16025 7.9787 5.21693C7.90159 5.2668 7.81028 5.29007 7.7187 5.28318" fill="#464648"/>
<path d="M10.8938 2.83618H9.375V5.83618H10.0175V4.64618H10.83V4.08868H10.0175V3.39368H10.8925V2.83618" fill="#464648"/>
<path d="M13.6132 12.6593C13.6132 12.6593 15.6057 12.2981 15.6057 12.9787C15.6057 13.6593 14.3713 13.3824 13.6132 12.6593ZM12.1401 12.7112C11.8235 12.7811 11.515 12.8836 11.2194 13.0168L11.4694 12.4543C11.7194 11.8918 11.9788 11.1249 11.9788 11.1249C12.2771 11.627 12.6242 12.0985 13.0151 12.5324C12.7203 12.5764 12.4282 12.6365 12.1401 12.7124V12.7112ZM11.3513 8.6487C11.3513 8.05557 11.5432 7.8937 11.6926 7.8937C11.8419 7.8937 12.0101 7.96557 12.0157 8.48057C11.967 8.99842 11.8586 9.5089 11.6926 10.0018C11.4651 9.58797 11.3474 9.12278 11.3507 8.65057L11.3513 8.6487ZM8.44568 15.2212C7.83443 14.8556 9.72755 13.7299 10.0707 13.6937C10.0688 13.6943 9.08568 15.6037 8.44568 15.2212ZM16.1876 13.0593C16.1813 12.9968 16.1251 12.3049 14.8938 12.3343C14.3806 12.326 13.8676 12.3622 13.3607 12.4424C12.8696 11.9477 12.4467 11.3896 12.1032 10.7831C12.3196 10.1577 12.4506 9.50599 12.4926 8.84557C12.4744 8.09557 12.2951 7.66557 11.7201 7.67182C11.1451 7.67807 11.0613 8.1812 11.1369 8.92995C11.211 9.4331 11.3507 9.92437 11.5526 10.3912C11.5526 10.3912 11.2869 11.2181 10.9357 12.0406C10.5844 12.8631 10.3444 13.2943 10.3444 13.2943C9.73363 13.4932 9.15864 13.7886 8.6413 14.1693C8.1263 14.6487 7.91693 15.0168 8.18818 15.3849C8.42193 15.7024 9.24005 15.7743 9.9713 14.8162C10.3598 14.3213 10.7148 13.801 11.0338 13.2587C11.0338 13.2587 12.1488 12.9531 12.4957 12.8693C12.8426 12.7856 13.2619 12.7193 13.2619 12.7193C13.2619 12.7193 14.2801 13.7437 15.2619 13.7074C16.2438 13.6712 16.1963 13.1206 16.1901 13.0606" fill="#DD2025"/>
<path d="M14.9712 1.2981V4.96872H18.4918L14.9712 1.2981Z" fill="#909090"/>
<path d="M15.0193 1.25V4.92063H18.5399L15.0193 1.25Z" fill="#F4F4F4"/>
<path d="M5.60936 2.78564H4.79248V5.78564H5.43748V4.77439L5.57998 4.78252C5.71784 4.78015 5.8544 4.75545 5.98436 4.70939C6.09829 4.67019 6.2031 4.60832 6.29248 4.52752C6.38273 4.45033 6.45378 4.35318 6.49998 4.24377C6.56266 4.06158 6.58506 3.86796 6.56561 3.67627C6.5617 3.53934 6.5377 3.40372 6.49436 3.27377C6.4549 3.17996 6.39635 3.09539 6.32243 3.02545C6.2485 2.95551 6.16083 2.90172 6.06498 2.86752C5.98173 2.83723 5.89569 2.81524 5.80811 2.80189C5.74212 2.79171 5.67549 2.78628 5.60873 2.78564H5.60936ZM5.49061 4.21939H5.43498V3.29439H5.55623C5.60947 3.29056 5.66289 3.29873 5.71254 3.31831C5.7622 3.33789 5.80682 3.36838 5.84311 3.40752C5.9183 3.50815 5.95848 3.63065 5.95748 3.75627C5.95748 3.91002 5.95748 4.04939 5.81873 4.14752C5.71877 4.2025 5.60499 4.22725 5.49123 4.21877" fill="white"/>
<path d="M7.78506 2.77746C7.71568 2.77746 7.64818 2.78246 7.60068 2.78434L7.45381 2.78809H6.96631V5.78809H7.54006C7.75932 5.7941 7.97763 5.75693 8.18256 5.67871C8.3475 5.61329 8.49357 5.50782 8.60756 5.37184C8.71841 5.23462 8.79797 5.07486 8.84069 4.90371C8.88979 4.70988 8.91373 4.51053 8.91193 4.31059C8.92406 4.07443 8.90578 3.8377 8.85756 3.60621C8.8118 3.43581 8.7261 3.27877 8.60756 3.14809C8.51456 3.04256 8.40071 2.95744 8.27318 2.89809C8.16367 2.84741 8.04847 2.81006 7.93006 2.78684C7.88297 2.77906 7.83528 2.7755 7.78756 2.77621L7.78506 2.77746ZM7.67381 5.23684H7.61131V3.32184H7.61943C7.74828 3.30701 7.87865 3.33026 7.99443 3.38871C8.07922 3.45642 8.14831 3.54171 8.19693 3.63871C8.24941 3.7408 8.27965 3.85284 8.28568 3.96746C8.29131 4.10496 8.28568 4.21746 8.28568 4.31059C8.28823 4.41786 8.28133 4.52515 8.26506 4.63121C8.2458 4.7401 8.21019 4.84546 8.15943 4.94371C8.10199 5.03506 8.02438 5.11203 7.93256 5.16871C7.85545 5.21859 7.76413 5.24185 7.67256 5.23496" fill="white"/>
<path d="M10.8457 2.78809H9.3269V5.78809H9.9694V4.59809H10.7819V4.04059H9.9694V3.34559H10.8444V2.78809" fill="white"/>
</svg>
