<svg width="735" height="234" viewBox="0 0 735 234" fill="none" xmlns="http://www.w3.org/2000/svg">
<path d="M245.1 119.257C243.944 123.284 241.797 126.304 238.659 128.317C235.521 130.29 231.702 131.277 227.202 131.277C223.073 131.277 219.502 130.472 216.488 128.861C213.474 127.21 211.162 124.854 209.552 121.794C207.942 118.694 207.136 115.009 207.136 110.741C207.136 106.513 207.942 102.848 209.552 99.7479C211.162 96.6473 213.474 94.2917 216.488 92.681C219.502 91.03 223.053 90.2046 227.14 90.2046C231.599 90.2046 235.377 91.1307 238.473 92.983C241.57 94.795 243.613 97.5332 244.604 101.197L235.253 104.882C234.675 102.466 233.787 100.775 232.59 99.8083C231.393 98.8418 229.7 98.3586 227.512 98.3586C224.498 98.3586 222.165 99.4257 220.513 101.56C218.862 103.654 218.036 106.714 218.036 110.741C218.036 114.767 218.821 117.848 220.39 119.982C222 122.076 224.312 123.123 227.326 123.123C229.597 123.123 231.393 122.599 232.714 121.552C234.035 120.506 234.943 118.855 235.439 116.6L245.1 119.257Z" fill="#1976D2"/>
<path d="M265.144 99.8687C270.305 99.8687 274.31 101.258 277.159 104.036C280.049 106.774 281.494 110.62 281.494 115.573C281.494 120.526 280.049 124.391 277.159 127.17C274.31 129.908 270.305 131.277 265.144 131.277C259.984 131.277 255.958 129.908 253.068 127.17C250.219 124.391 248.795 120.526 248.795 115.573C248.795 110.62 250.219 106.774 253.068 104.036C255.958 101.258 259.984 99.8687 265.144 99.8687ZM265.144 107.177C263.163 107.177 261.697 107.842 260.747 109.17C259.798 110.499 259.323 112.633 259.323 115.573C259.323 118.512 259.798 120.646 260.747 121.975C261.697 123.304 263.163 123.969 265.144 123.969C267.126 123.969 268.592 123.304 269.541 121.975C270.491 120.646 270.966 118.512 270.966 115.573C270.966 112.633 270.491 110.499 269.541 109.17C268.592 107.842 267.126 107.177 265.144 107.177Z" fill="#1976D2"/>
<path d="M327.853 99.8687C330.991 99.8687 333.53 100.795 335.47 102.647C337.452 104.499 338.443 107.137 338.443 110.56V130.673H327.915V112.915C327.915 109.452 326.511 107.721 323.703 107.721C322.052 107.721 320.731 108.305 319.74 109.472C318.749 110.64 318.254 112.331 318.254 114.546V130.673H307.725V112.915C307.725 109.452 306.322 107.721 303.514 107.721C301.945 107.721 300.645 108.305 299.613 109.472C298.58 110.64 298.064 112.392 298.064 114.727V130.673H287.536V100.473H296.95L297.259 106.271C298.25 104.177 299.633 102.587 301.409 101.499C303.184 100.412 305.269 99.8687 307.663 99.8687C310.017 99.8687 312.04 100.392 313.733 101.439C315.467 102.486 316.705 103.996 317.448 105.969C318.439 103.996 319.843 102.486 321.66 101.439C323.518 100.392 325.582 99.8687 327.853 99.8687Z" fill="#1976D2"/>
<path d="M365.717 99.8687C369.763 99.8687 372.901 101.238 375.131 103.976C377.36 106.714 378.475 110.539 378.475 115.452C378.475 120.445 377.34 124.331 375.069 127.109C372.798 129.888 369.681 131.277 365.717 131.277C363.529 131.277 361.63 130.774 360.02 129.767C358.451 128.76 357.233 127.371 356.366 125.599V143.357H345.838V100.473H355.065L355.375 106.875C356.242 104.741 357.563 103.05 359.339 101.801C361.155 100.513 363.281 99.8687 365.717 99.8687ZM362.063 123.727C363.921 123.727 365.346 123.062 366.337 121.734C367.369 120.405 367.885 118.351 367.885 115.573C367.885 112.794 367.369 110.741 366.337 109.412C365.346 108.083 363.921 107.419 362.063 107.419C360.288 107.419 358.884 108.083 357.852 109.412C356.861 110.741 356.366 112.694 356.366 115.271V115.875C356.366 118.371 356.861 120.304 357.852 121.673C358.843 123.042 360.247 123.727 362.063 123.727Z" fill="#1976D2"/>
<path d="M414.336 124.814C415.12 124.814 415.76 124.734 416.255 124.573L415.45 130.311C414.253 130.955 412.849 131.277 411.239 131.277C406.78 131.277 404.117 129.727 403.25 126.626C401.392 129.727 397.718 131.277 392.226 131.277C389.13 131.277 386.756 130.633 385.104 129.344C383.453 128.056 382.627 126.183 382.627 123.727C382.627 121.15 383.556 119.076 385.414 117.506C387.313 115.895 390.41 114.667 394.704 113.821L401.702 112.492V111.405C401.702 110.036 401.31 108.949 400.525 108.144C399.741 107.338 398.667 106.936 397.305 106.936C395.736 106.936 394.456 107.298 393.465 108.023C392.474 108.748 391.834 109.935 391.545 111.586L382.999 109.17C383.536 106.231 385.022 103.956 387.458 102.345C389.894 100.694 393.176 99.8687 397.305 99.8687C402.135 99.8687 405.81 100.835 408.328 102.768C410.847 104.701 412.106 107.6 412.106 111.466V122.458C412.106 124.029 412.849 124.814 414.336 124.814ZM396.066 124.633C397.511 124.633 398.812 124.25 399.968 123.485C401.124 122.68 401.702 121.633 401.702 120.344V117.747L396.685 118.895C395.364 119.217 394.415 119.62 393.837 120.103C393.3 120.546 393.032 121.19 393.032 122.036C393.032 122.881 393.3 123.526 393.837 123.969C394.373 124.411 395.117 124.633 396.066 124.633Z" fill="#1976D2"/>
<path d="M440.721 99.8687C443.983 99.8687 446.584 100.795 448.525 102.647C450.465 104.499 451.435 107.137 451.435 110.56V130.673H440.907V113.398C440.907 111.345 440.515 109.895 439.73 109.05C438.987 108.164 437.914 107.721 436.51 107.721C434.859 107.721 433.517 108.305 432.485 109.472C431.452 110.6 430.936 112.351 430.936 114.727V130.673H420.408V100.473H429.822L430.131 106.271C431.122 104.137 432.526 102.546 434.342 101.499C436.159 100.412 438.285 99.8687 440.721 99.8687Z" fill="#1976D2"/>
<path d="M477.611 130.673C476.454 133.894 475.195 136.451 473.833 138.344C472.47 140.236 470.86 141.585 469.002 142.391C467.144 143.236 464.894 143.659 462.252 143.659C458.742 143.659 455.935 142.914 453.829 141.424L456.059 134.539C456.719 135.143 457.442 135.545 458.226 135.747C459.052 135.988 460.105 136.109 461.385 136.109C462.665 136.109 463.676 135.888 464.419 135.445C465.163 135.042 465.761 134.297 466.215 133.21L466.958 131.337L463.367 123.123L454.139 100.473H465.72L470.489 117.687L471.975 124.089L473.647 117.445L478.416 100.473H488.944L477.611 130.673Z" fill="#1976D2"/>
<path d="M524.635 122.64V130.673H493.484V90.8086H504.136V122.64H524.635Z" fill="#1976D2"/>
<path d="M547.74 90.2046C551.869 90.2046 555.419 91.03 558.392 92.681C561.406 94.2917 563.718 96.6473 565.328 99.7479C566.938 102.808 567.743 106.472 567.743 110.741C567.743 115.009 566.938 118.694 565.328 121.794C563.718 124.854 561.406 127.21 558.392 128.861C555.419 130.472 551.869 131.277 547.74 131.277C543.611 131.277 540.04 130.472 537.026 128.861C534.012 127.21 531.7 124.854 530.09 121.794C528.48 118.694 527.674 115.009 527.674 110.741C527.674 106.472 528.48 102.808 530.09 99.7479C531.7 96.6473 534.012 94.2917 537.026 92.681C540.04 91.03 543.611 90.2046 547.74 90.2046ZM547.74 98.3586C544.767 98.3586 542.496 99.4056 540.928 101.499C539.359 103.593 538.574 106.674 538.574 110.741C538.574 114.808 539.359 117.888 540.928 119.982C542.496 122.076 544.767 123.123 547.74 123.123C550.712 123.123 552.963 122.076 554.49 119.982C556.059 117.888 556.844 114.808 556.844 110.741C556.844 106.674 556.059 103.593 554.49 101.499C552.963 99.4056 550.712 98.3586 547.74 98.3586Z" fill="#1976D2"/>
<path d="M611.733 109.11V130.673H604.301L603.991 125.962C601.638 129.505 597.737 131.277 592.287 131.277C588.571 131.277 585.268 130.492 582.378 128.921C579.529 127.311 577.299 124.975 575.689 121.915C574.079 118.814 573.274 115.11 573.274 110.801C573.274 106.533 574.1 102.869 575.751 99.8083C577.403 96.7077 579.756 94.3319 582.811 92.681C585.867 91.03 589.479 90.2046 593.649 90.2046C598.315 90.2046 602.072 91.0099 604.92 92.6206C607.769 94.2313 610.019 96.8285 611.671 100.412L601.824 104.217C601.328 102.244 600.4 100.775 599.037 99.8083C597.675 98.8418 595.982 98.3586 593.959 98.3586C590.821 98.3586 588.406 99.4056 586.713 101.499C585.061 103.593 584.236 106.674 584.236 110.741C584.236 119.116 587.58 123.304 594.268 123.304C596.787 123.304 598.81 122.74 600.338 121.613C601.906 120.485 602.691 118.855 602.691 116.72V116.116H592.534V109.11H611.733Z" fill="#1976D2"/>
<path d="M638.156 90.2046C642.284 90.2046 645.835 91.03 648.808 92.681C651.822 94.2917 654.134 96.6473 655.744 99.7479C657.354 102.808 658.159 106.472 658.159 110.741C658.159 115.009 657.354 118.694 655.744 121.794C654.134 124.854 651.822 127.21 648.808 128.861C645.835 130.472 642.284 131.277 638.156 131.277C634.027 131.277 630.456 130.472 627.442 128.861C624.428 127.21 622.116 124.854 620.506 121.794C618.895 118.694 618.09 115.009 618.09 110.741C618.09 106.472 618.895 102.808 620.506 99.7479C622.116 96.6473 624.428 94.2917 627.442 92.681C630.456 91.03 634.027 90.2046 638.156 90.2046ZM638.156 98.3586C635.183 98.3586 632.912 99.4056 631.343 101.499C629.775 103.593 628.99 106.674 628.99 110.741C628.99 114.808 629.775 117.888 631.343 119.982C632.912 122.076 635.183 123.123 638.156 123.123C641.128 123.123 643.379 122.076 644.906 119.982C646.475 117.888 647.259 114.808 647.259 110.741C647.259 106.674 646.475 103.593 644.906 101.499C643.379 99.4056 641.128 98.3586 638.156 98.3586Z" fill="#1976D2"/>
<path fill-rule="evenodd" clip-rule="evenodd" d="M105.361 78.9077C105.361 63.0052 92.592 50.1136 76.8408 50.1136V153.484C76.8408 156.336 78.3591 158.972 80.8258 160.403L121.82 184.19C124.316 185.638 127.398 185.63 129.887 184.169L170.336 160.41C172.782 158.974 174.284 156.349 174.284 153.512V111.177C174.284 108.289 172.727 105.625 170.21 104.207L130.229 81.6859C127.557 80.1808 124.259 80.3357 121.74 82.0845L112.491 88.5057V117.3L125.859 110.101V110.009L145.764 121.822V142.494L125.859 154.159L105.361 143.161V78.9077Z" fill="#1976D2"/>
<path fill-rule="evenodd" clip-rule="evenodd" d="M85.1931 50.1136C100.944 50.1136 113.713 63.0052 113.713 78.9077V91.5801L123.158 86.2673L130.166 81.8023C132.657 80.2157 135.818 80.1299 138.391 81.579L178.563 104.207C181.079 105.625 182.636 108.289 182.636 111.177V153.512C182.636 156.349 181.134 158.974 178.688 160.41L138.239 184.169C135.751 185.63 132.668 185.638 130.172 184.19L89.1781 160.403C86.7114 158.972 85.1931 156.336 85.1931 153.484V50.1136ZM118.282 118.499L113.713 120.991V143.161L134.212 154.159L154.116 142.494V121.822L134.212 110.009V110.101L118.282 118.499Z" fill="#869DAE" fill-opacity="0.3"/>
</svg>
