<svg width="24" height="24" viewBox="0 0 24 24" fill="none" xmlns="http://www.w3.org/2000/svg">
<mask id="mask0" mask-type="alpha" maskUnits="userSpaceOnUse" x="0" y="0" width="24" height="24">
<rect width="24" height="24" fill="#C4C4C4"/>
</mask>
<g mask="url(#mask0)">
<path d="M20.6297 9.97485H12.3455C11.0385 9.97485 9.97522 11.0381 9.97522 12.3451V16.846L7.82885 18.3791C7.6595 18.4999 7.55896 18.6953 7.55896 18.9034C7.55896 19.1117 7.6595 19.3071 7.82885 19.4279L10.0011 20.9794C10.1708 22.1211 11.1575 22.9998 12.3455 22.9998H20.6297C21.9367 22.9998 23 21.9365 23 20.6293V12.3451C23 11.0381 21.9367 9.97485 20.6297 9.97485ZM17.8442 19.0313C17.6923 19.0313 17.575 18.9831 17.5405 18.8519L17.278 17.9336H15.697L15.4348 18.8519C15.4002 18.9831 15.2829 19.0313 15.131 19.0313C14.8893 19.0313 14.5649 18.8796 14.5649 18.6587C14.5649 18.6447 14.5717 18.6172 14.5786 18.5895L15.9111 14.2471C15.9732 14.04 16.2287 13.9431 16.4841 13.9431C16.7465 13.9431 17.0019 14.04 17.064 14.2471L18.3965 18.5895C18.4034 18.6172 18.4103 18.6379 18.4103 18.6587C18.4103 18.8725 18.0859 19.0313 17.8442 19.0313Z" fill="#878787"/>
<path d="M15.884 17.2288H17.0854L16.4846 15.1095L15.884 17.2288Z" fill="#878787"/>
<path d="M8.68567 12.3448C8.68567 11.4794 8.98829 10.6838 9.49232 10.0566C8.757 10.0566 8.07472 9.82649 7.51228 9.43559C6.94984 9.82666 6.26756 10.0566 5.53208 10.0566C5.33151 10.0566 5.1687 9.8938 5.1687 9.69306C5.1687 9.49232 5.33151 9.32968 5.53208 9.32968C6.04719 9.32968 6.52923 9.18701 6.94195 8.93995C6.44413 8.40269 6.11315 7.70899 6.03309 6.94128H5.53225C5.33151 6.94128 5.1687 6.77864 5.1687 6.5779C5.1687 6.37716 5.33151 6.21436 5.53225 6.21436H7.14907V5.33184C7.14907 5.13094 7.31171 4.9683 7.51245 4.9683C7.71319 4.9683 7.87583 5.13094 7.87583 5.33184V6.21436H9.49265C9.69339 6.21436 9.8562 6.37716 9.8562 6.5779C9.8562 6.77864 9.69339 6.94128 9.49265 6.94128H8.99181C8.91175 7.70899 8.58077 8.40269 8.08295 8.93995C8.4955 9.18735 8.97771 9.32968 9.49265 9.32968C9.6845 9.32968 9.84126 9.47839 9.85486 9.66687C10.5086 9.05861 11.3839 8.6855 12.3451 8.6855H14.0249V7.15377L16.1713 5.6207C16.3405 5.49985 16.441 5.30448 16.441 5.09636C16.441 4.88807 16.3405 4.6927 16.1713 4.57185L13.9991 3.02032C13.8292 1.87865 12.8425 1 11.6545 1H3.37044C2.06328 1 1 2.06328 1 3.37027V11.6546C1 12.9616 2.06328 14.0249 3.37044 14.0249H8.68567V12.3448Z" fill="#878787"/>
<path d="M7.51297 8.48566C7.91075 8.07294 8.18081 7.53702 8.25986 6.94135H6.76624C6.84529 7.53702 7.11552 8.07294 7.51297 8.48566Z" fill="#878787"/>
</g>
</svg>
