<svg width="24" height="24" viewBox="0 0 24 24" fill="none" xmlns="http://www.w3.org/2000/svg">
<mask id="mask0" mask-type="alpha" maskUnits="userSpaceOnUse" x="0" y="0" width="24" height="24">
<rect width="24" height="24" fill="#C4C4C4"/>
</mask>
<g mask="url(#mask0)">
<path d="M20.0969 6.97856C19.2867 4.36015 17.1566 2.22946 14.5382 1.41911C11.7669 0.560653 8.81828 1.03777 6.56765 2.69611C4.3336 4.34299 3 6.98116 3 9.75302C3 11.6652 3.60492 13.4819 4.74894 15.0064L11.7624 24L18.7758 15.0057C20.4879 12.7229 20.9697 9.79713 20.0969 6.97856ZM11.7624 14.4712C9.16104 14.4712 7.04418 12.3543 7.04418 9.75298C7.04418 7.15164 9.16104 5.03478 11.7624 5.03478C14.3637 5.03478 16.4806 7.15164 16.4806 9.75298C16.4806 12.3543 14.3637 14.4712 11.7624 14.4712Z" fill="#878787"/>
<path d="M11.8926 7.3916C10.5141 7.3916 9.39258 8.50651 9.39258 9.88494C9.39258 11.2634 10.5141 12.3849 11.8926 12.3849C13.271 12.3849 14.3926 11.2634 14.3926 9.88494C14.3926 8.50651 13.271 7.3916 11.8926 7.3916Z" fill="#878787"/>
</g>
</svg>
