<svg width="30" height="40" viewBox="0 0 30 40" fill="none" xmlns="http://www.w3.org/2000/svg">
<path fill-rule="evenodd" clip-rule="evenodd" d="M0.5 0C5.21463 0 9.03658 3.85869 9.03658 8.61862V12.4117L12.5834 10.4166L12.6257 10.5436C14.8089 9.72797 17.2726 9.89666 19.3516 11.0678L25.5929 14.5834C28.1096 16.0011 29.6667 18.6652 29.6667 21.5537V27.7408C29.6667 30.5776 28.1644 33.2022 25.7184 34.6389L19.1994 38.4679C16.7111 39.9295 13.6286 39.9376 11.1326 38.4894L4.48498 34.6321C2.01824 33.2008 0.5 30.5645 0.5 27.7126V0ZM10.4017 20.4702L9.03658 21.2149V27.8509L15.1723 31.1427L21.1301 27.6514V21.4637L15.1723 17.9278V17.9555L10.4017 20.4702Z" fill="#869DAE" fill-opacity="0.3"/>
</svg>
