<svg width="220" height="70" viewBox="0 0 220 70" fill="none" xmlns="http://www.w3.org/2000/svg">
<path d="M73.3632 35.696C73.0171 36.9013 72.3745 37.8053 71.4353 38.4079C70.4961 38.9985 69.353 39.2938 68.006 39.2938C66.7702 39.2938 65.7012 39.0527 64.7991 38.5706C63.897 38.0765 63.2049 37.3714 62.7229 36.4554C62.241 35.5273 62 34.4245 62 33.1469C62 31.8814 62.241 30.7846 62.7229 29.8565C63.2049 28.9284 63.897 28.2234 64.7991 27.7412C65.7012 27.2471 66.764 27 67.9874 27C69.3221 27 70.4529 27.2772 71.3797 27.8316C72.3066 28.374 72.9183 29.1936 73.2149 30.2904L70.4158 31.3932C70.2428 30.6701 69.9771 30.1638 69.6187 29.8746C69.2603 29.5853 68.7536 29.4407 68.0987 29.4407C67.1965 29.4407 66.4983 29.7601 66.004 30.3989C65.5097 31.0256 65.2625 31.9416 65.2625 33.1469C65.2625 34.3522 65.4973 35.2742 65.9669 35.913C66.4489 36.5397 67.1409 36.8531 68.0431 36.8531C68.7227 36.8531 69.2603 36.6964 69.6558 36.383C70.0512 36.0697 70.3231 35.5755 70.4714 34.9006L73.3632 35.696Z" fill="white"/>
<path d="M79.3629 29.8927C80.9077 29.8927 82.1064 30.3085 82.9591 31.1401C83.8241 31.9597 84.2567 33.1107 84.2567 34.5932C84.2567 36.0757 83.8241 37.2328 82.9591 38.0644C82.1064 38.884 80.9077 39.2938 79.3629 39.2938C77.8182 39.2938 76.6133 38.884 75.7482 38.0644C74.8955 37.2328 74.4692 36.0757 74.4692 34.5932C74.4692 33.1107 74.8955 31.9597 75.7482 31.1401C76.6133 30.3085 77.8182 29.8927 79.3629 29.8927ZM79.3629 32.0802C78.7697 32.0802 78.331 32.2791 78.0468 32.6768C77.7626 33.0746 77.6204 33.7134 77.6204 34.5932C77.6204 35.4731 77.7626 36.1119 78.0468 36.5096C78.331 36.9073 78.7697 37.1062 79.3629 37.1062C79.9561 37.1062 80.3948 36.9073 80.679 36.5096C80.9633 36.1119 81.1054 35.4731 81.1054 34.5932C81.1054 33.7134 80.9633 33.0746 80.679 32.6768C80.3948 32.2791 79.9561 32.0802 79.3629 32.0802Z" fill="white"/>
<path d="M98.1328 29.8927C99.072 29.8927 99.832 30.1699 100.413 30.7243C101.006 31.2787 101.303 32.0682 101.303 33.0927V39.113H98.1513V33.7977C98.1513 32.7612 97.7311 32.2429 96.8908 32.2429C96.3965 32.2429 96.001 32.4177 95.7044 32.7672C95.4078 33.1168 95.2595 33.623 95.2595 34.2859V39.113H92.1082V33.7977C92.1082 32.7612 91.6881 32.2429 90.8477 32.2429C90.3781 32.2429 89.9889 32.4177 89.6799 32.7672C89.371 33.1168 89.2165 33.6411 89.2165 34.3401V39.113H86.0652V30.0734H88.8828L88.9755 31.809C89.2721 31.1823 89.6861 30.7062 90.2175 30.3808C90.7489 30.0554 91.3729 29.8927 92.0897 29.8927C92.7941 29.8927 93.3997 30.0493 93.9063 30.3627C94.4254 30.6761 94.7961 31.1281 95.0185 31.7186C95.3151 31.1281 95.7353 30.6761 96.2791 30.3627C96.8352 30.0493 97.4531 29.8927 98.1328 29.8927Z" fill="white"/>
<path d="M109.466 29.8927C110.677 29.8927 111.617 30.3024 112.284 31.122C112.951 31.9416 113.285 33.0866 113.285 34.5571C113.285 36.0516 112.945 37.2147 112.265 38.0463C111.586 38.878 110.653 39.2938 109.466 39.2938C108.811 39.2938 108.243 39.1431 107.761 38.8418C107.291 38.5405 106.927 38.1247 106.667 37.5943V42.9096H103.516V30.0734H106.278L106.371 31.9898C106.63 31.351 107.026 30.8448 107.557 30.4712C108.101 30.0855 108.737 29.8927 109.466 29.8927ZM108.373 37.0339C108.929 37.0339 109.355 36.835 109.652 36.4373C109.961 36.0395 110.115 35.4249 110.115 34.5932C110.115 33.7616 109.961 33.1469 109.652 32.7492C109.355 32.3514 108.929 32.1525 108.373 32.1525C107.841 32.1525 107.421 32.3514 107.112 32.7492C106.816 33.1469 106.667 33.7315 106.667 34.5028V34.6836C106.667 35.4309 106.816 36.0094 107.112 36.4192C107.409 36.829 107.829 37.0339 108.373 37.0339Z" fill="white"/>
<path d="M124.019 37.3593C124.254 37.3593 124.445 37.3352 124.593 37.287L124.352 39.0045C123.994 39.1974 123.574 39.2938 123.092 39.2938C121.757 39.2938 120.96 38.8298 120.701 37.9017C120.145 38.8298 119.045 39.2938 117.401 39.2938C116.474 39.2938 115.764 39.1009 115.269 38.7153C114.775 38.3296 114.528 37.7691 114.528 37.0339C114.528 36.2625 114.806 35.6418 115.362 35.1718C115.93 34.6896 116.857 34.322 118.143 34.0689L120.237 33.6712V33.3458C120.237 32.936 120.12 32.6105 119.885 32.3695C119.65 32.1284 119.329 32.0079 118.921 32.0079C118.452 32.0079 118.068 32.1164 117.772 32.3333C117.475 32.5503 117.284 32.9058 117.197 33.4L114.639 32.6768C114.8 31.797 115.245 31.116 115.974 30.6339C116.703 30.1397 117.685 29.8927 118.921 29.8927C120.367 29.8927 121.467 30.1819 122.221 30.7605C122.975 31.339 123.351 32.2068 123.351 33.3638V36.6542C123.351 37.1243 123.574 37.3593 124.019 37.3593ZM118.55 37.3051C118.983 37.3051 119.372 37.1906 119.718 36.9616C120.064 36.7205 120.237 36.4072 120.237 36.0215V35.2441L118.736 35.5876C118.34 35.684 118.056 35.8045 117.883 35.9492C117.722 36.0817 117.642 36.2746 117.642 36.5277C117.642 36.7808 117.722 36.9736 117.883 37.1062C118.044 37.2388 118.266 37.3051 118.55 37.3051Z" fill="white"/>
<path d="M131.917 29.8927C132.893 29.8927 133.671 30.1699 134.252 30.7243C134.833 31.2787 135.123 32.0682 135.123 33.0927V39.113H131.972V33.9424C131.972 33.3277 131.855 32.8938 131.62 32.6407C131.398 32.3755 131.076 32.2429 130.656 32.2429C130.162 32.2429 129.76 32.4177 129.451 32.7672C129.142 33.1047 128.988 33.629 128.988 34.3401V39.113H125.836V30.0734H128.654L128.747 31.809C129.043 31.1702 129.463 30.6942 130.007 30.3808C130.551 30.0554 131.187 29.8927 131.917 29.8927Z" fill="white"/>
<path d="M142.958 39.113C142.612 40.0772 142.235 40.8426 141.827 41.409C141.42 41.9755 140.938 42.3793 140.382 42.6203C139.825 42.8734 139.152 43 138.361 43C137.311 43 136.47 42.777 135.84 42.3311L136.507 40.2701C136.705 40.4508 136.921 40.5714 137.156 40.6316C137.403 40.704 137.718 40.7401 138.102 40.7401C138.485 40.7401 138.787 40.6738 139.01 40.5412C139.232 40.4207 139.411 40.1977 139.547 39.8723L139.77 39.3119L138.695 36.8531L135.933 30.0734H139.399L140.826 35.226L141.271 37.1424L141.772 35.1537L143.199 30.0734H146.35L142.958 39.113Z" fill="white"/>
<path d="M157.034 36.7085V39.113H147.709V27.1808H150.898V36.7085H157.034Z" fill="white"/>
<path d="M163.949 27C165.185 27 166.248 27.2471 167.138 27.7412C168.04 28.2234 168.732 28.9284 169.214 29.8565C169.696 30.7725 169.937 31.8693 169.937 33.1469C169.937 34.4245 169.696 35.5273 169.214 36.4554C168.732 37.3714 168.04 38.0765 167.138 38.5706C166.248 39.0527 165.185 39.2938 163.949 39.2938C162.714 39.2938 161.645 39.0527 160.742 38.5706C159.84 38.0765 159.148 37.3714 158.666 36.4554C158.184 35.5273 157.943 34.4245 157.943 33.1469C157.943 31.8693 158.184 30.7725 158.666 29.8565C159.148 28.9284 159.84 28.2234 160.742 27.7412C161.645 27.2471 162.714 27 163.949 27ZM163.949 29.4407C163.06 29.4407 162.38 29.754 161.91 30.3808C161.441 31.0075 161.206 31.9296 161.206 33.1469C161.206 34.3642 161.441 35.2863 161.91 35.913C162.38 36.5397 163.06 36.8531 163.949 36.8531C164.839 36.8531 165.513 36.5397 165.97 35.913C166.439 35.2863 166.674 34.3642 166.674 33.1469C166.674 31.9296 166.439 31.0075 165.97 30.3808C165.513 29.754 164.839 29.4407 163.949 29.4407Z" fill="white"/>
<path d="M183.104 32.6588V39.113H180.879L180.787 37.7028C180.082 38.7635 178.914 39.2938 177.283 39.2938C176.171 39.2938 175.182 39.0588 174.317 38.5887C173.464 38.1066 172.797 37.4075 172.315 36.4915C171.833 35.5635 171.592 34.4546 171.592 33.165C171.592 31.8874 171.839 30.7906 172.334 29.8746C172.828 28.9465 173.532 28.2354 174.447 27.7412C175.361 27.2471 176.443 27 177.691 27C179.087 27 180.212 27.2411 181.065 27.7232C181.917 28.2053 182.591 28.9827 183.085 30.0554L180.138 31.1943C179.989 30.6038 179.711 30.1638 179.304 29.8746C178.896 29.5853 178.389 29.4407 177.784 29.4407C176.844 29.4407 176.121 29.754 175.615 30.3808C175.12 31.0075 174.873 31.9296 174.873 33.1469C174.873 35.6539 175.874 36.9073 177.876 36.9073C178.63 36.9073 179.236 36.7386 179.693 36.4011C180.162 36.0637 180.397 35.5755 180.397 34.9367V34.7559H177.357V32.6588H183.104Z" fill="white"/>
<path d="M191.013 27C192.248 27 193.311 27.2471 194.201 27.7412C195.103 28.2234 195.795 28.9284 196.277 29.8565C196.759 30.7725 197 31.8693 197 33.1469C197 34.4245 196.759 35.5273 196.277 36.4554C195.795 37.3714 195.103 38.0765 194.201 38.5706C193.311 39.0527 192.248 39.2938 191.013 39.2938C189.777 39.2938 188.708 39.0527 187.806 38.5706C186.904 38.0765 186.211 37.3714 185.73 36.4554C185.248 35.5273 185.007 34.4245 185.007 33.1469C185.007 31.8693 185.248 30.7725 185.73 29.8565C186.211 28.9284 186.904 28.2234 187.806 27.7412C188.708 27.2471 189.777 27 191.013 27ZM191.013 29.4407C190.123 29.4407 189.443 29.754 188.973 30.3808C188.504 31.0075 188.269 31.9296 188.269 33.1469C188.269 34.3642 188.504 35.2863 188.973 35.913C189.443 36.5397 190.123 36.8531 191.013 36.8531C191.902 36.8531 192.576 36.5397 193.033 35.913C193.503 35.2863 193.737 34.3642 193.737 33.1469C193.737 31.9296 193.503 31.0075 193.033 30.3808C192.576 29.754 191.902 29.4407 191.013 29.4407Z" fill="white"/>
<path fill-rule="evenodd" clip-rule="evenodd" d="M31.5366 23.6186C31.5366 18.8587 27.7146 15 23 15V42.7126C23 45.5645 24.5182 48.2008 26.985 49.6321L33.6326 53.4894C36.1286 54.9376 39.2111 54.9295 41.6994 53.4679L48.2184 49.6389C50.6644 48.2022 52.1667 45.5776 52.1667 42.7408V36.5537C52.1667 33.6652 50.6096 31.0011 48.0929 29.5834L41.9165 26.1043C39.3209 24.6422 36.1179 24.7926 33.6707 26.4915V35.1101L37.6723 32.9555V32.9278L43.6301 36.4637V42.6514L37.6723 46.1427L31.5366 42.8509V23.6186Z" fill="white"/>
<path fill-rule="evenodd" clip-rule="evenodd" d="M25.5 15C30.2146 15 34.0366 18.8587 34.0366 23.6186V27.4117L37.5834 25.4166L37.6257 25.5436C39.8089 24.728 42.2726 24.8967 44.3516 26.0678L50.5929 29.5834C53.1096 31.0011 54.6667 33.6652 54.6667 36.5537V42.7408C54.6667 45.5776 53.1644 48.2022 50.7184 49.6389L44.1994 53.4679C41.7111 54.9295 38.6286 54.9376 36.1326 53.4894L29.485 49.6321C27.0182 48.2008 25.5 45.5645 25.5 42.7126V15ZM35.4017 35.4702L34.0366 36.2149V42.8509L40.1723 46.1427L46.1301 42.6514V36.4637L40.1723 32.9278V32.9555L35.4017 35.4702Z" fill="#869DAE" fill-opacity="0.3"/>
</svg>
