<svg width="32" height="32" viewBox="0 0 32 32" fill="none" xmlns="http://www.w3.org/2000/svg">
<g opacity="0.9">
<path d="M25.7198 23.0533L23.9998 21.3333V14.6667C23.9998 10.5733 21.8132 7.14667 17.9998 6.24V5.33334C17.9998 4.22667 17.1065 3.33334 15.9998 3.33334C14.8932 3.33334 13.9998 4.22667 13.9998 5.33334V6.24C10.1732 7.14667 7.99982 10.56 7.99982 14.6667V21.3333L6.27982 23.0533C5.43982 23.8933 6.02649 25.3333 7.21316 25.3333H24.7732C25.9732 25.3333 26.5598 23.8933 25.7198 23.0533ZM21.3332 22.6667H10.6665V14.6667C10.6665 11.36 12.6798 8.66667 15.9998 8.66667C19.3198 8.66667 21.3332 11.36 21.3332 14.6667V22.6667ZM15.9998 29.3333C17.4665 29.3333 18.6665 28.1333 18.6665 26.6667H13.3332C13.3332 28.1333 14.5198 29.3333 15.9998 29.3333Z" fill="white"/>
<ellipse cx="25.0666" cy="2.66667" rx="2.66667" ry="2.66667" fill="#F68383"/>
</g>
</svg>
