<svg width="20" height="20" viewBox="0 0 20 20" fill="none" xmlns="http://www.w3.org/2000/svg">
<path d="M14 7.33383H11.7143C11.3988 7.33383 11.1428 7.09491 11.1428 6.80052C11.1428 6.50613 11.3988 6.26721 11.7143 6.26721H14C14.3154 6.26721 14.5714 6.50613 14.5714 6.80052C14.5714 7.09491 14.3154 7.33383 14 7.33383Z" fill="#388E3C"/>
<path d="M14 9.46701H11.7143C11.3988 9.46701 11.1428 9.22809 11.1428 8.9337C11.1428 8.63931 11.3988 8.40039 11.7143 8.40039H14C14.3154 8.40039 14.5714 8.63931 14.5714 8.9337C14.5714 9.22809 14.3154 9.46701 14 9.46701Z" fill="#388E3C"/>
<path d="M14 11.6003H11.7143C11.3988 11.6003 11.1428 11.3614 11.1428 11.067C11.1428 10.7726 11.3988 10.5337 11.7143 10.5337H14C14.3154 10.5337 14.5714 10.7726 14.5714 11.067C14.5714 11.3614 14.3154 11.6003 14 11.6003Z" fill="#388E3C"/>
<path d="M14 13.7335H11.7143C11.3988 13.7335 11.1428 13.4946 11.1428 13.2002C11.1428 12.9058 11.3988 12.6669 11.7143 12.6669H14C14.3154 12.6669 14.5714 12.9058 14.5714 13.2002C14.5714 13.4946 14.3154 13.7335 14 13.7335Z" fill="#388E3C"/>
<path d="M17.4284 7.33383H16.2855C15.9701 7.33383 15.7141 7.09491 15.7141 6.80052C15.7141 6.50613 15.9701 6.26721 16.2855 6.26721H17.4284C17.7438 6.26721 17.9998 6.50613 17.9998 6.80052C17.9998 7.09491 17.7438 7.33383 17.4284 7.33383Z" fill="#388E3C"/>
<path d="M17.4284 9.46701H16.2855C15.9701 9.46701 15.7141 9.22809 15.7141 8.9337C15.7141 8.63931 15.9701 8.40039 16.2855 8.40039H17.4284C17.7438 8.40039 17.9998 8.63931 17.9998 8.9337C17.9998 9.22809 17.7438 9.46701 17.4284 9.46701Z" fill="#388E3C"/>
<path d="M17.4284 11.6003H16.2855C15.9701 11.6003 15.7141 11.3614 15.7141 11.067C15.7141 10.7726 15.9701 10.5337 16.2855 10.5337H17.4284C17.7438 10.5337 17.9998 10.7726 17.9998 11.067C17.9998 11.3614 17.7438 11.6003 17.4284 11.6003Z" fill="#388E3C"/>
<path d="M17.4284 13.7335H16.2855C15.9701 13.7335 15.7141 13.4946 15.7141 13.2002C15.7141 12.9058 15.9701 12.6669 16.2855 12.6669H17.4284C17.7438 12.6669 17.9998 12.9058 17.9998 13.2002C17.9998 13.4946 17.7438 13.7335 17.4284 13.7335Z" fill="#388E3C"/>
<path d="M12.0789 2.12338C11.9486 2.02205 11.7737 1.97832 11.6091 2.01032L2.46629 3.61025C2.19543 3.65718 2 3.8769 2 4.13396V15.8668C2 16.1228 2.19543 16.3435 2.46629 16.3905L11.6091 17.9904C11.6434 17.9968 11.6789 18 11.7143 18C11.8469 18 11.976 17.9573 12.0789 17.8773C12.2103 17.776 12.2857 17.6245 12.2857 17.4667V2.53403C12.2857 2.3751 12.2103 2.22471 12.0789 2.12338Z" fill="#2E7D32"/>
<path d="M9.74465 12.1014L7.93779 10.174L9.76522 7.98106C9.95951 7.74854 9.91379 7.41362 9.66579 7.23229C9.41779 7.05097 9.05894 7.09363 8.86351 7.32509L7.17094 9.35593L5.74465 7.83493C5.53551 7.61094 5.17436 7.59068 4.93894 7.7848C4.70122 7.97893 4.67722 8.31598 4.88522 8.53677L6.45665 10.2135L4.86351 12.1249C4.66922 12.3574 4.71494 12.6923 4.96294 12.8736C5.06808 12.9494 5.19265 12.9856 5.31494 12.9856C5.48522 12.9856 5.65322 12.9152 5.76636 12.7798L7.22351 11.0305L8.88522 12.8022C8.99837 12.9238 9.15608 12.9856 9.31494 12.9856C9.44865 12.9856 9.58237 12.9419 9.69094 12.8534C9.92865 12.6592 9.95265 12.3222 9.74465 12.1014Z" fill="#FAFAFA"/>
</svg>
