<svg width="32" height="32" viewBox="0 0 32 32" fill="none" xmlns="http://www.w3.org/2000/svg">
<g opacity="0.9">
<path d="M28.5714 16.6857C28.5714 9.60912 22.8297 3.8857 15.7714 3.8857C8.69486 3.8857 2.97144 9.60912 2.97144 16.6857C2.97144 23.7623 8.69486 29.4857 15.7714 29.4857C22.8297 29.4857 28.5714 23.7623 28.5714 16.6857ZM17.0514 19.392H14.1989V18.6057C14.1989 17.9108 14.3451 17.3257 14.6377 16.8137C14.9303 16.3017 15.4789 15.7714 16.2469 15.1863C16.9966 14.656 17.4903 14.2171 17.728 13.888C17.984 13.5588 18.0937 13.1748 18.0937 12.7543C18.0937 12.2971 17.9291 11.9497 17.5817 11.6937C17.2343 11.456 16.7589 11.3463 16.1371 11.3463C15.0766 11.3463 13.8514 11.6937 12.48 12.3886L11.3097 10.048C12.9006 9.15198 14.6011 8.69484 16.3749 8.69484C17.856 8.69484 19.0263 9.06055 19.8857 9.75541C20.7634 10.4686 21.184 11.4194 21.184 12.5897C21.184 13.376 21.0194 14.0526 20.6537 14.6194C20.3063 15.2046 19.6114 15.8446 18.624 16.5577C17.9291 17.0697 17.5086 17.4537 17.3257 17.7097C17.1429 17.984 17.0514 18.3314 17.0514 18.752V19.392ZM14.3634 24.4023C14.0343 24.0914 13.8697 23.6343 13.8697 23.0674C13.8697 22.464 14.016 22.0068 14.3451 21.696C14.6743 21.3851 15.1314 21.2388 15.7531 21.2388C16.3383 21.2388 16.7954 21.4034 17.1246 21.7143C17.4537 22.0251 17.6183 22.4823 17.6183 23.0674C17.6183 23.616 17.4537 24.0731 17.1246 24.384C16.7954 24.7131 16.3383 24.8777 15.7531 24.8777C15.1497 24.8777 14.6926 24.7131 14.3634 24.4023Z" fill="white"/>
</g>
</svg>
