<svg width="24" height="24" viewBox="0 0 24 24" fill="none" xmlns="http://www.w3.org/2000/svg">
<mask id="mask0" mask-type="alpha" maskUnits="userSpaceOnUse" x="0" y="0" width="24" height="24">
<rect width="24" height="24" fill="#C4C4C4"/>
</mask>
<g mask="url(#mask0)">
<path d="M11.8003 15.1579C13.6666 15.1579 15.1619 13.4653 15.1619 11.3684L15.1731 3.78947C15.1731 1.69263 13.6666 0 11.8003 0C9.93396 0 8.42741 1.69263 8.42741 3.78947V11.3684C8.42741 13.4653 9.93396 15.1579 11.8003 15.1579ZM18.6359 11.3684C18.1637 11.3684 17.7702 11.7474 17.7028 12.2653C17.2868 15.5621 14.6447 17.8105 11.8003 17.8105C8.95583 17.8105 6.31375 15.5747 5.89776 12.2653C5.86313 12.0152 5.75002 11.7874 5.57887 11.6229C5.40772 11.4584 5.18983 11.3681 4.9646 11.3684C4.37998 11.3684 3.93026 11.9495 4.00896 12.5937C4.52613 16.3453 7.33685 19.2884 10.676 19.8568V22.7368C10.676 23.4316 11.1819 24 11.8003 24C12.4186 24 12.9246 23.4316 12.9246 22.7368V19.8568C16.2525 19.3137 19.0744 16.3453 19.5916 12.5937C19.6097 12.4408 19.5985 12.2853 19.5588 12.1376C19.519 11.9899 19.4516 11.8535 19.3611 11.7375C19.2706 11.6215 19.1591 11.5285 19.0341 11.4649C18.909 11.4012 18.7732 11.3683 18.6359 11.3684Z" fill="#878787"/>
</g>
</svg>
