<svg width="32" height="32" viewBox="0 0 32 32" fill="none" xmlns="http://www.w3.org/2000/svg">
<g opacity="0.9">
<path d="M28.9515 13.9733L25.9737 13.0844C25.7678 12.3656 25.4847 11.6712 25.1293 11.0133L26.587 8.28442C26.6418 8.18141 26.6618 8.06351 26.6442 7.94822C26.6266 7.83293 26.5722 7.72639 26.4893 7.64442L24.3648 5.51108C24.2829 5.42812 24.1763 5.37381 24.061 5.35619C23.9457 5.33858 23.8278 5.35861 23.7248 5.41331L21.0137 6.8622C20.3494 6.48945 19.6458 6.19134 18.9159 5.97331L18.0271 3.03108C17.9895 2.92265 17.9184 2.82895 17.8242 2.76346C17.7299 2.69797 17.6173 2.66407 17.5026 2.66664H14.4982C14.3827 2.66718 14.2705 2.70454 14.1778 2.77328C14.085 2.84203 14.0167 2.93857 13.9826 3.04886L13.0937 5.9822C12.3577 6.19906 11.6482 6.4972 10.9782 6.87108L8.31149 5.43108C8.20849 5.37638 8.09059 5.35636 7.9753 5.37397C7.86001 5.39158 7.75347 5.4459 7.67149 5.52886L5.51149 7.63553C5.42853 7.7175 5.37421 7.82404 5.3566 7.93933C5.33899 8.05463 5.35901 8.17252 5.41371 8.27553L6.85371 10.9422C6.48043 11.6094 6.18231 12.3159 5.96483 13.0489L3.0226 13.9378C2.91231 13.9718 2.81577 14.0402 2.74702 14.1329C2.67828 14.2256 2.64092 14.3379 2.64038 14.4533V17.4577C2.64092 17.5732 2.67828 17.6854 2.74702 17.7781C2.81577 17.8709 2.91231 17.9392 3.0226 17.9733L5.9826 18.8622C6.20247 19.5829 6.50054 20.2774 6.87149 20.9333L5.41371 23.7244C5.35901 23.8274 5.33899 23.9453 5.3566 24.0606C5.37421 24.1759 5.42853 24.2824 5.51149 24.3644L7.63594 26.4889C7.71791 26.5718 7.82445 26.6261 7.93974 26.6438C8.05503 26.6614 8.17293 26.6413 8.27594 26.5866L11.0226 25.12C11.6724 25.4706 12.3577 25.7507 13.067 25.9555L13.9559 28.9511C13.99 29.0614 14.0584 29.1579 14.1511 29.2267C14.2438 29.2954 14.3561 29.3328 14.4715 29.3333H17.4759C17.5914 29.3328 17.7036 29.2954 17.7963 29.2267C17.8891 29.1579 17.9574 29.0614 17.9915 28.9511L18.8804 25.9466C19.5836 25.7407 20.263 25.4606 20.907 25.1111L23.6715 26.5866C23.7745 26.6413 23.8924 26.6614 24.0077 26.6438C24.123 26.6261 24.2295 26.5718 24.3115 26.4889L26.4359 24.3644C26.5189 24.2824 26.5732 24.1759 26.5908 24.0606C26.6084 23.9453 26.5884 23.8274 26.5337 23.7244L25.0582 20.9689C25.4114 20.3224 25.6945 19.64 25.9026 18.9333L28.8982 18.0444C29.0084 18.0104 29.105 17.942 29.1737 17.8493C29.2425 17.7565 29.2798 17.6443 29.2804 17.5289V14.4978C29.2856 14.3872 29.2569 14.2777 29.1981 14.184C29.1393 14.0902 29.0533 14.0167 28.9515 13.9733ZM16.0004 20.8889C15.0335 20.8889 14.0882 20.6021 13.2843 20.0649C12.4803 19.5277 11.8537 18.7642 11.4836 17.8709C11.1136 16.9775 11.0168 15.9945 11.2054 15.0462C11.3941 14.0978 11.8597 13.2267 12.5434 12.543C13.2271 11.8593 14.0983 11.3937 15.0466 11.205C15.995 11.0164 16.978 11.1132 17.8713 11.4832C18.7646 11.8533 19.5281 12.4799 20.0653 13.2839C20.6025 14.0878 20.8893 15.033 20.8893 16C20.8893 17.2966 20.3742 18.5401 19.4573 19.4569C18.5405 20.3738 17.297 20.8889 16.0004 20.8889Z" fill="white"/>
</g>
</svg>
