<svg width="24" height="24" viewBox="0 0 24 24" fill="none" xmlns="http://www.w3.org/2000/svg">
<mask id="mask0" mask-type="alpha" maskUnits="userSpaceOnUse" x="0" y="0" width="24" height="24">
<rect width="24" height="24" fill="#C4C4C4"/>
</mask>
<g mask="url(#mask0)">
<path d="M12.2176 11.6341C13.5411 11.6341 14.6872 11.1594 15.6237 10.2228C16.5601 9.28635 17.0348 8.14057 17.0348 6.81688C17.0348 5.49364 16.5601 4.34771 15.6235 3.41097C14.6869 2.4747 13.541 2 12.2176 2C10.8939 2 9.74811 2.4747 8.81168 3.41113C7.87524 4.34756 7.40039 5.49349 7.40039 6.81688C7.40039 8.14057 7.87524 9.2865 8.81183 10.2229C9.74841 11.1592 10.8943 11.6341 12.2176 11.6341Z" fill="#878787"/>
<path d="M20.6457 17.379C20.6187 16.9893 20.564 16.5642 20.4836 16.1152C20.4024 15.663 20.2979 15.2354 20.1728 14.8447C20.0435 14.4408 19.8678 14.0419 19.6505 13.6597C19.425 13.2629 19.1601 12.9175 18.8628 12.6332C18.552 12.3358 18.1714 12.0967 17.7314 11.9223C17.2928 11.7488 16.8069 11.6609 16.287 11.6609C16.0828 11.6609 15.8854 11.7447 15.5041 11.9929C15.2694 12.146 14.9949 12.323 14.6885 12.5188C14.4265 12.6857 14.0716 12.8421 13.6332 12.9837C13.2055 13.1221 12.7712 13.1923 12.3426 13.1923C11.914 13.1923 11.4799 13.1221 11.0517 12.9837C10.6138 12.8422 10.2589 12.6858 9.99716 12.5189C9.69366 12.325 9.41901 12.148 9.18082 11.9928C8.79996 11.7445 8.60236 11.6608 8.39819 11.6608C7.87817 11.6608 7.39233 11.7488 6.95395 11.9225C6.51419 12.0966 6.13348 12.3357 5.82236 12.6334C5.52527 12.9178 5.26022 13.2631 5.035 13.6597C4.81787 14.0419 4.64209 14.4406 4.5127 14.8448C4.38773 15.2356 4.2832 15.663 4.20203 16.1152C4.12161 16.5635 4.06699 16.9888 4.03998 17.3794C4.01343 17.7621 4 18.1593 4 18.5605C4 19.6045 4.33188 20.4496 4.98633 21.073C5.63269 21.688 6.48795 22.0001 7.52798 22.0001H17.1581C18.1982 22.0001 19.0531 21.6882 19.6996 21.073C20.3542 20.4501 20.6861 19.6048 20.6861 18.5603C20.6859 18.1573 20.6724 17.7598 20.6457 17.379Z" fill="#878787"/>
</g>
</svg>
