<svg width="12" height="10" viewBox="0 0 12 10" fill="none" xmlns="http://www.w3.org/2000/svg">
<path d="M6.48115 1.16865C6.42764 1.09093 6.35603 1.02738 6.2725 0.983474C6.18897 0.939571 6.09602 0.916633 6.00165 0.916633C5.90729 0.916633 5.81434 0.939571 5.73081 0.983474C5.64728 1.02738 5.57567 1.09093 5.52215 1.16865L0.272154 8.75199C0.211386 8.83945 0.17575 8.9419 0.169118 9.0482C0.162486 9.1545 0.185112 9.26058 0.234538 9.35492C0.283963 9.44927 0.358298 9.52826 0.449467 9.58332C0.540635 9.63838 0.645149 9.6674 0.751655 9.66724L11.2517 9.66724C11.3579 9.6668 11.462 9.6374 11.5528 9.58221C11.6436 9.52701 11.7177 9.44811 11.767 9.35399C11.8163 9.25987 11.839 9.15408 11.8327 9.04801C11.8264 8.94194 11.7913 8.83959 11.7312 8.75199L6.48115 1.16865Z" fill="#37A0EA"/>
</svg>
