<svg width="20" height="20" viewBox="0 0 20 20" fill="none" xmlns="http://www.w3.org/2000/svg">
<path d="M11.585 1.45192V3.04254C13.71 3.05442 16.035 3.02067 18.1606 3.05442C18.2356 3.04138 18.3126 3.04601 18.3855 3.06793C18.4583 3.08986 18.5251 3.12847 18.5804 3.18071C18.6357 3.23295 18.6781 3.29738 18.7042 3.36887C18.7303 3.44036 18.7393 3.51695 18.7306 3.59254C18.7644 7.50879 18.7225 11.6488 18.7506 15.5657C18.7381 15.8157 18.7563 16.2644 18.7175 16.5138C18.6681 16.8319 18.5263 16.8932 18.2069 16.9363C18.0281 16.9607 17.7294 16.9575 17.5538 16.9657C15.8088 16.9569 14.065 16.9588 12.32 16.9594H11.5856V18.5513L1.25 16.9582V3.04567L11.585 1.45129" fill="#283C82"/>
<path d="M11.585 3.63879H18.1475V16.3625H11.585V14.7719H16.7537V13.9769H11.585V12.9832H16.7537V12.1875H11.585V11.1938H16.7537V10.3982H11.585V9.40442H16.7537V8.60879H11.585V7.61504H16.7537V6.81942H11.585V5.82567H16.7537V5.03004H11.585V3.63879Z" fill="white"/>
<path d="M5.35813 7.15187C5.73313 7.12999 6.11375 7.11437 6.49125 7.09437C6.75563 8.43624 7.02625 9.77625 7.3125 11.1125C7.53688 9.7325 7.78563 8.35687 8.02625 6.97937C8.42345 6.96513 8.82037 6.9443 9.21688 6.91687C8.7675 8.84312 8.37375 10.7856 7.88313 12.7006C7.55125 12.8737 7.05438 12.6925 6.66063 12.7206C6.39625 11.4044 6.08813 10.0956 5.85125 8.77437C5.61875 10.0625 5.31625 11.3331 5.05 12.6094C4.66833 12.5894 4.28521 12.5662 3.90063 12.54C3.57063 10.79 3.18313 9.05312 2.875 7.29937C3.215 7.28374 3.55688 7.26937 3.89688 7.2575C4.10188 8.52375 4.33438 9.78437 4.51313 11.0525C4.79313 9.7525 5.08 8.45187 5.35813 7.15187Z" fill="white"/>
</svg>
